<svg xmlns="http://www.w3.org/2000/svg" width="286" height="196" viewBox="0 0 286 196">
  <g id="グループ_42" data-name="グループ 42" transform="translate(-2937 -1417)">
    <rect id="写真エリア" width="286" height="196" rx="10" transform="translate(2937 1417)" fill="#efefef"/>
    <g id="出品アイコン" transform="translate(3034.011 1406.193)">
      <path id="パス_2" data-name="パス 2" d="M205.21,224.828A11.47,11.47,0,1,0,216.576,236.3,11.416,11.416,0,0,0,205.21,224.828Z" transform="translate(-159.721 -135.937)" fill="#707070"/>
      <path id="パス_3" data-name="パス 3" d="M85.073,71.726H74.656A5.9,5.9,0,0,1,69.272,68l-3.118-7.4a5.9,5.9,0,0,0-5.386-3.719H30.211a5.91,5.91,0,0,0-5.389,3.719L21.706,68a5.9,5.9,0,0,1-5.384,3.721H5.905A6.116,6.116,0,0,0,0,78.031V125.5a6.116,6.116,0,0,0,5.905,6.305H85.073a6.118,6.118,0,0,0,5.905-6.305V78.031A6.118,6.118,0,0,0,85.073,71.726ZM45.489,122.163C34.172,122.163,25,112.368,25,100.284S34.173,78.4,45.489,78.4s20.487,9.8,20.487,21.882S56.806,122.163,45.489,122.163Z" fill="#707070"/>
    </g>
    <!-- <text id="むしの写真をえらんでね" transform="translate(2970 1578)" fill="#707070" stroke="#707070" stroke-width="1" font-size="20" font-family="Yomogi-Regular, Yomogi"><tspan x="0" y="0">むしの写真をえらんでね</tspan></text> -->
  </g>
</svg>
